<svg fill="none" height="44" viewBox="0 0 145 44" width="145" xmlns="http://www.w3.org/2000/svg"><rect fill="#000" height="43.3792" rx="4.33792" width="144.781"/><rect height="43.3792" rx="4.33792" stroke="#000" width="144.781"/><path d="m22.2169 21.0962-11.4181 12.2554c0 .0023.0023.0046.0023.0068.3497 1.3308 1.5514 2.3101 2.9795 2.3101.5694 0 1.1052-.1564 1.5648-.4284l.0359-.0227 12.8529-7.4993z" fill="#d8432b"/><path d="m33.7674 19.0107-.0112-.0068-5.5487-3.2532-6.2505 5.6245 6.2729 6.3431 5.5196-3.2214c.9685-.5283 1.6254-1.5597 1.6254-2.7499 0-1.1811-.6479-2.2058-1.6075-2.7363z" fill="#fbc81d"/><path d="m10.799 10.0944c-.0695.2561-.1054.5236-.1054.8025v21.6522c0 .2788.0359.5463.1054.8025l11.8104-11.9403z" fill="#3371c1"/><path d="m22.3023 21.7225 5.9097-5.9735-12.8372-7.5265c-.4663-.28338-1.0111-.4466-1.594-.4466-1.4259 0-2.6298.98161-2.9795 2.3146v.0023z" fill="#32a472"/><g fill="#f2f3f5"><path d="m50.8534 11.143c0 .9091-.2668 1.6323-.7981 2.1718-.6053.6416-1.3945.9635-2.363.9635-.9282 0-1.7195-.3242-2.3675-.9771-.6501-.6506-.9752-1.4577-.9752-2.4211 0-.96353.3251-1.77058.9752-2.42121.6502-.65063 1.4393-.97708 2.3675-.97708.4618 0 .9013.09068 1.3205.27204s.7555.42393 1.0066.72771l-.5649.57128c-.426-.51461-1.0134-.77305-1.7622-.77305-.6771 0-1.2622.24031-1.7577.72318-.4954.48287-.742 1.10633-.742 1.87713 0 .7685.2466 1.3942.742 1.877.4955.4829 1.0806.7232 1.7577.7232.7197 0 1.3183-.2426 1.798-.7277.3117-.3151.491-.7549.5403-1.3171h-2.3361v-.7821h3.1186c.0246.1677.0403.3309.0403.4896z"/><path d="m55.7968 8.42458h-2.9302v2.06302h2.641v.7821h-2.6432v2.063h2.9302v.8002h-3.7575v-6.50631h3.7575v.79799"/><path d="m59.2828 14.1309h-.8273v-5.70608h-1.798v-.80025h4.421v.80025h-1.798z"/><path d="m64.2803 14.1309v-6.50633h.8272v6.50633z"/><path d="m68.7727 14.1309h-.8272v-5.70608h-1.798v-.80025h4.421v.80025h-1.798z"/><path d="m74.8328 12.7458c.4775.4874 1.0582.7322 1.7487.7322.6883 0 1.2734-.2425 1.7487-.7322.4775-.4874.7151-1.1109.7151-1.868 0-.7572-.2398-1.38065-.7151-1.86805-.4753-.48741-1.0582-.73225-1.7487-.73225-.6883 0-1.2712.24257-1.7487.73225-.4753.4874-.7152 1.11085-.7152 1.86805 0 .7571.2399 1.3806.7152 1.868zm4.1094.5463c-.6322.6575-1.4191.9862-2.3607.9862-.9394 0-1.7263-.3287-2.3585-.9862-.6322-.6574-.9483-1.4622-.9483-2.4121 0-.94985.3161-1.75463.9483-2.41207.6322-.65743 1.4191-.98615 2.3585-.98615.9349 0 1.7195.33099 2.3562.99069.6345.6597.9529 1.46222.9529 2.40753-.0023.9499-.3184 1.7547-.9484 2.4121z"/><path d="m81.0496 14.1306v-6.50628h1.0066l3.1275 5.06228h.0358l-.0358-1.2537v-3.80631h.8272v6.50631h-.8631l-3.271-5.30706h-.0358l.0358 1.25366v4.0534z"/><path d="m114.683 32.5673h2v-13.5567h-2zm18.025-8.6736-2.296 5.8761h-.069l-2.381-5.8783h-2.157l3.574 8.2156-2.036 4.5703h2.087l5.502-12.7837zm-11.351 7.132c-.655 0-1.569-.3309-1.569-1.1516 0-1.0474 1.139-1.4486 2.121-1.4486.878 0 1.293.1927 1.827.4534-.153 1.2582-1.222 2.1468-2.379 2.1468zm.242-7.4289c-1.448 0-2.95.6461-3.571 2.0765l1.778.7504c.379-.7504 1.087-.9929 1.827-.9929 1.036 0 2.087.6279 2.105 1.7433v.1405c-.363-.2085-1.139-.5236-2.087-.5236-1.915 0-3.863 1.0632-3.863 3.0514 0 1.8136 1.569 2.9833 3.329 2.9833 1.345 0 2.087-.6098 2.554-1.3262h.069v1.0474h1.933v-5.1982c-.003-2.4099-1.78-3.7519-4.074-3.7519zm-12.366 1.9473h-2.845v-4.6474h2.845c1.495 0 2.345 1.2537 2.345 2.3237 0 1.0497-.85 2.3237-2.345 2.3237zm-.052-6.5358h-4.795v13.5567h2.002v-5.137h2.793c2.22 0 4.399-1.6232 4.399-4.2098 0-2.5867-2.182-4.2099-4.399-4.2099zm-26.1473 12.022c-1.381 0-2.5401-1.1698-2.5401-2.7771 0-1.6255 1.1569-2.8134 2.5401-2.8134 1.3654 0 2.437 1.1879 2.437 2.8134-.0022 1.605-1.0739 2.7771-2.437 2.7771zm2.298-6.3771h-.0695c-.4484-.5418-1.3138-1.0315-2.4011-1.0315-2.28 0-4.3717 2.0267-4.3717 4.6292 0 2.5867 2.0917 4.5953 4.3717 4.5953 1.0896 0 1.9527-.4897 2.4011-1.0474h.0695v.6642c0 1.7638-.9326 2.7091-2.437 2.7091-1.2263 0-1.9863-.8909-2.2979-1.6413l-1.7442.7345c.5021 1.2219 1.8316 2.7249 4.0421 2.7249 2.3496 0 4.3359-1.3964 4.3359-4.8038v-8.2813h-1.9011v.7481zm3.2822 7.9141h2.0042v-13.5567h-2.0042zm4.9591-4.4728c-.0516-1.7819 1.3653-2.6909 2.3854-2.6909.7959 0 1.4684.4012 1.6926.9793zm6.219-1.537c-.3811-1.0315-1.5379-2.9358-3.9054-2.9358-2.3495 0-4.3022 1.8703-4.3022 4.6111 0 2.5866 1.9348 4.6134 4.5264 4.6134 2.0917 0 3.3001-1.2922 3.8001-2.0449l-1.5559-1.0474c-.5179.7686-1.2263 1.2764-2.2464 1.2764s-1.7442-.4716-2.2105-1.3988l6.098-2.5504zm-48.5912-1.5212v1.9564h4.6295c-.139 1.0995-.4999 1.9043-1.0537 2.4643-.6748.6823-1.7285 1.4327-3.5758 1.4327-2.8518 0-5.0802-2.3237-5.0802-5.205 0-2.8837 2.2284-5.2074 5.0802-5.2074 1.5379 0 2.6611.6121 3.4906 1.3988l1.3654-1.3806c-1.1569-1.1176-2.6948-1.9746-4.856-1.9746-3.9055 0-7.1876 3.2146-7.1876 7.1638 0 3.9491 3.2821 7.1637 7.1876 7.1637 2.1074 0 3.6969-.6982 4.9411-2.0086 1.2779-1.2921 1.677-3.1103 1.677-4.577 0-.4534-.0336-.8728-.1031-1.222h-6.515zm11.8821 5.994c-1.3832 0-2.5737-1.1539-2.5737-2.7952 0-1.6595 1.1927-2.7953 2.5737-2.7953s2.5737 1.1358 2.5737 2.7953c0 1.6413-1.1904 2.7952-2.5737 2.7952zm0-7.4086c-2.5221 0-4.578 1.9383-4.578 4.6111 0 2.6547 2.0559 4.6134 4.578 4.6134 2.5222 0 4.578-1.9565 4.578-4.6134 0-2.6728-2.0558-4.6111-4.578-4.6111zm9.9878 7.4086c-1.3833 0-2.5738-1.1539-2.5738-2.7952 0-1.6595 1.1927-2.7953 2.5738-2.7953 1.381 0 2.5737 1.1358 2.5737 2.7953 0 1.6413-1.1905 2.7952-2.5737 2.7952zm0-7.4086c-2.5222 0-4.578 1.9383-4.578 4.6111 0 2.6547 2.0558 4.6134 4.578 4.6134 2.5221 0 4.578-1.9565 4.578-4.6134 0-2.6728-2.0559-4.6111-4.578-4.6111z"/></g></svg>